<?xml version="1.0" encoding="UTF-8"?>
<!-- PDFTron PDFNet Generated! Version: 7.1.0.741 -->
<!--UserId:497b0c3e-a6d5-47b9-9332-cbed66d66e6c,DocId:b177c2c7-feb6-49c0-a900-4831a81a441e,SkinCD:MLI5,SDCL:#2fc4b1-->
<svg version="1.1" width="595px" height="842px" viewBox="0 0 595 842" xmlns="http://www.w3.org/2000/svg" xmlns:xlink="http://www.w3.org/1999/xlink" xmlns:cs="svg" xml:space="preserve">
  <style type="text/css">
.ps00{stroke:#2EC4B1;fill:none}
.ps010{fill-opacity:0.250;fill:#FFFFFF}
.ps06{fill:#000000}
.ps08{fill:#2EC4B0}
.ps02{fill:#2EC4B0}
.ps09{fill:#46464E}
.ps05{fill:#46464E}
.ps04{fill:#494949}
.ps07{fill:#FFFFFF}
.ps03{fill:#FFFFFF}
.ps01{fill:none}
.ps10{stroke-width:224}
.ps26{letter-spacing:0;word-spacing:0;font-family:'Arial';font-size:44.33px;font-weight:800;}
.ps25{letter-spacing:0;word-spacing:0;font-family:'Arial';font-size:14.66px}
.ps24{letter-spacing:0;word-spacing:0;font-family:'Arial';font-size:14px;font-weight:600}
.ps22{letter-spacing:0;word-spacing:0;font-family:'Arial';font-size:14.66px}
.ps23{letter-spacing:0;word-spacing:0;font-family:'Arial';font-size:14.66px;font-weight:600}
.ps21{letter-spacing:0;word-spacing:0;font-family:'Arial';font-size:18.66px;font-weight:600}
.ps20{letter-spacing:0;word-spacing:0;font-family:'Trebuchet MS';font-size:25.33px;font-weight:600}</style>
<clipPath id="clp1">
<rect width="595" height="842" />
</clipPath>
<g clip-path="url(#clp1)" transform="matrix(1 0 0 -1 0 842)">
<g>
<path d="M-112 -112 L483 -112 L483 954 L-112 954 Z" class="ps00 ps10" />
</g>
<g>
<clipPath id="clp2">
<path d="M0 25 L595 25 L595 842 L0 842 Z" />
</clipPath>
<g clip-path="url(#clp2)">
<g transform="matrix(1.334 0 0 1.332 0 25)">
<clipPath id="clp3">
<rect width="446" height="613" />
</clipPath>
<g clip-path="url(#clp3)">
<g transform="matrix(1 0 0 -1 0 613)">
<g class="ps01">
<clipPath id="clp4" clip-rule="evenodd">
<path d="M0 0 L446 0 L446 612.48 L0 612.48 Z" />
</clipPath>
<g clip-path="url(#clp4)">
<g class="ps01">
<g transform="matrix(0.562 0 0 0.562 0 0)">
<path d="M46 192 L469 192 L469 193 L46 193 Z" class="ps02" />
<path d="M46 255 L469 255 L469 256 L46 256 Z" class="ps02" />
<path d="M46 466 L469 466 L469 467 L46 467 Z" class="ps02" />
<path d="M494 221 L747 221 L747 222 L494 222 Z" class="ps03" />
<path d="M494 368 L747 368 L747 369 L494 369 Z" class="ps03" />
<path d="M494 494 L747 494 L747 495 L494 495 Z" class="ps03" />
<text transform="matrix(1 0 0 1 46 170)"><tspan class="ps04 ps20" xml:space="preserve">Secrétaire</tspan></text>
<text transform="matrix(1 0 0 1 46 250)"><tspan class="ps02 ps21" xml:space="preserve">PROFIL PROFESSIONNEL</tspan></text>
<text transform="matrix(1 0 0 1 46 286)"><tspan class="ps05 ps22" xml:space="preserve">Secrétaire efficace sachant entretenir des relations</tspan></text>
<text transform="matrix(1 0 0 1 46 307)"><tspan class="ps05 ps22" xml:space="preserve">professionnelles cordiales avec les clients, le personnel et</tspan></text>
<text transform="matrix(1 0 0 1 46 328)"><tspan class="ps05 ps22" xml:space="preserve">les associés. Dotée d'un bon esprit d'équipe, je suis de</tspan></text>
<text transform="matrix(1 0 0 1 46 349)"><tspan class="ps05 ps22" xml:space="preserve">nature sérieuse et je sais être d'un grand soutien dans les</tspan></text>
<text transform="matrix(1 0 0 1 46 370)"><tspan class="ps05 ps22" xml:space="preserve">tâches du quotidien. Je me distingue grâce à mon approche</tspan></text>
<text transform="matrix(1 0 0 1 46 391)"><tspan class="ps05 ps22" xml:space="preserve">proactive de l'administration et par ma grande attention au</tspan></text>
<text transform="matrix(1 0 0 1 46 412)"><tspan class="ps05 ps22" xml:space="preserve">détail.</tspan></text>
<text transform="matrix(1 0 0 1 46 460)"><tspan class="ps02 ps21" xml:space="preserve">PARCOURS PROFESSIONNEL</tspan></text>
<text transform="matrix(1 0 0 1 46 496)"><tspan class="ps06 ps23" xml:space="preserve">Secrétaire commerciale</tspan></text>
<text transform="matrix(1 0 0 1 210.75 496)"><tspan class="ps06 ps22" xml:space="preserve">, </tspan></text><text transform="matrix(1 0 0 1 217.984 496)"><tspan class="ps06 ps24" xml:space="preserve">07/2020 - Actuel</tspan></text><text transform="matrix(1 0 0 1 46 517)"><tspan class="ps06 ps24" xml:space="preserve">Benson &amp; Benson</tspan></text>
<text transform="matrix(1 0 0 1 170.734 517)"><tspan class="ps06 ps22" xml:space="preserve">, Paris - CDI</tspan></text><text transform="matrix(1 0 0 1 46 823)"><tspan class="ps06 ps23" xml:space="preserve">Stagiaire en secrétariat</tspan></text>
<text transform="matrix(1 0 0 1 211.546 823)"><tspan class="ps06 ps22" xml:space="preserve">, </tspan></text><text transform="matrix(1 0 0 1 218.781 823)"><tspan class="ps06 ps24" xml:space="preserve">01/2020 - 06/2020</tspan></text><text transform="matrix(1 0 0 1 46 844)"><tspan class="ps06 ps24" xml:space="preserve">La Poste</tspan></text>
<text transform="matrix(1 0 0 1 106.734 844)"><tspan class="ps06 ps22" xml:space="preserve">, Paris - CDI</tspan></text></g>
</g>
</g>
</g>
<g class="ps01">
<clipPath id="clp5" clip-rule="evenodd">
<path d="M293.02 34.308 L307.08 34.308 L307.08 48.368 L293.02 48.368 Z" />
</clipPath>
<g clip-path="url(#clp5)">
<g class="ps01">
<g transform="matrix(0.740 0 0 0.740 293.391 34.677)">
<path d="M18 9 C18 10.193 17.772 11.342 17.315 12.444 C16.858 13.547 16.208 14.52 15.364 15.364 C14.52 16.208 13.547 16.858 12.444 17.315 C11.342 17.772 10.193 18 9 18 C7.806 18 6.658 17.772 5.555 17.315 C4.453 16.858 3.48 16.208 2.636 15.364 C1.792 14.52 1.141 13.547 0.685 12.444 C0.228 11.342 0 10.193 0 9 C0 7.806 0.228 6.658 0.685 5.555 C1.141 4.453 1.792 3.48 2.636 2.636 C3.48 1.792 4.453 1.141 5.555 0.685 C6.658 0.228 7.806 0 9 0 C10.193 0 11.342 0.228 12.444 0.685 C13.547 1.141 14.52 1.792 15.364 2.636 C16.208 3.48 16.858 4.453 17.315 5.555 C17.772 6.658 18 7.806 18 9 Z" class="ps03" />
</g>
</g>
<g class="ps01">
<g transform="matrix(0.740 0 0 0.740 297.091 37.637)">
<path d="M3.7 5.1 C2.8 5.1 2 4.4 2 3.5 C2 2.6 2.7 1.9 3.6 1.9 C4.5 1.9 5.2 2.6 5.2 3.5 C5.2 4.4 4.6 5.1 3.7 5.1M3.7 0 C1.6 0 0 1.6 0 3.7 C0 4.5 0.6 6 1.7 7.9 C2.5 9.4 3.4 10.6 3.4 10.6 L3.7 11 L3.9 10.7 C3.9 10.7 4.8 9.4 5.6 8 C6.7 6 7.3 4.6 7.3 3.8 C7.3 1.6 5.7 0 3.7 0" class="ps02" />
</g>
</g>
</g>
</g>
<g class="ps01">
<clipPath id="clp6" clip-rule="evenodd">
<path d="M0 0 L446 0 L446 612.48 L0 612.48 Z" />
</clipPath>
<g clip-path="url(#clp6)">
<g class="ps01">
<g transform="matrix(0.562 0 0 0.562 0 0)">
<text transform="matrix(1 0 0 1 560 69)"><tspan class="ps07 ps22" xml:space="preserve">49 Place de la Madeleine,</tspan></text><text transform="matrix(1 0 0 1 560 90)"><tspan class="ps07 ps22" xml:space="preserve">75012, Paris</tspan></text></g>
</g>
</g>
</g>
<g class="ps01">
<clipPath id="clp7" clip-rule="evenodd">
<path d="M293.02 60.741 L307.08 60.741 L307.08 75.364 L293.02 75.364 Z" />
</clipPath>
<g clip-path="url(#clp7)">
<g class="ps01">
<g transform="matrix(0.740 0 0 0.769 293.391 61.126)">
<path d="M18 9 C18 10.193 17.772 11.342 17.315 12.444 C16.858 13.547 16.208 14.52 15.364 15.364 C14.52 16.208 13.547 16.858 12.444 17.315 C11.342 17.772 10.193 18 9 18 C7.806 18 6.658 17.772 5.555 17.315 C4.453 16.858 3.48 16.208 2.636 15.364 C1.792 14.52 1.141 13.547 0.685 12.444 C0.228 11.342 0 10.193 0 9 C0 7.806 0.228 6.658 0.685 5.555 C1.141 4.453 1.792 3.48 2.636 2.636 C3.48 1.792 4.453 1.141 5.555 0.685 C6.658 0.228 7.806 0 9 0 C10.193 0 11.342 0.228 12.444 0.685 C13.547 1.141 14.52 1.792 15.364 2.636 C16.208 3.48 16.858 4.453 17.315 5.555 C17.772 6.658 18 7.806 18 9 Z" class="ps03" />
</g>
</g>
<g class="ps01">
<g transform="matrix(0.740 0 0 0.769 296.721 64.204)">
<path d="M8.945 7.750 C8.872 8.110 8.760 8.404 8.598 8.650 C8.426 8.909 8.203 9.112 7.917 9.269 C7.525 9.485 7.097 9.594 6.641 9.594 C6.298 9.594 5.938 9.533 5.562 9.412 C4.803 9.167 4.076 8.707 3.527 8.332 C2.997 7.970 2.511 7.518 2.040 6.952 C1.540 6.410 1.157 5.868 0.868 5.295 C0.568 4.703 0.207 3.920 0.065 3.137 C-0.099 2.229 0.051 1.450 0.515 0.820 C0.708 0.557 0.940 0.364 1.218 0.227 C1.482 0.099 1.788 0.025 2.156 0.002 C2.370 -0.011 2.661 0.047 2.828 0.408 C2.963 0.699 3.106 0.994 3.242 1.279 C3.342 1.484 3.443 1.695 3.542 1.905 C3.606 2.040 3.658 2.177 3.700 2.309 C3.780 2.573 3.707 2.789 3.477 2.972 C3.181 3.205 2.891 3.435 2.616 3.669 C2.605 3.679 2.582 3.698 2.568 3.712 C2.572 3.725 2.581 3.753 2.600 3.797 C2.881 4.492 3.225 5.062 3.647 5.537 L3.653 5.544 C4.071 6.025 4.590 6.440 5.241 6.812 C5.282 6.837 5.307 6.848 5.322 6.853 C5.337 6.840 5.358 6.823 5.370 6.813 C5.637 6.569 5.902 6.313 6.175 6.050 C6.385 5.847 6.610 5.802 6.860 5.917 C6.987 5.974 7.113 6.045 7.240 6.125 C7.433 6.252 7.630 6.380 7.821 6.505 C8.086 6.679 8.358 6.858 8.630 7.030 C8.967 7.244 8.987 7.539 8.945 7.750" class="ps02" />
</g>
</g>
</g>
</g>
<g class="ps01">
<clipPath id="clp8" clip-rule="evenodd">
<path d="M0 0 L446 0 L446 612.48 L0 612.48 Z" />
</clipPath>
<g clip-path="url(#clp8)">
<g class="ps01">
<g transform="matrix(0.562 0 0 0.562 0 0)">
<text transform="matrix(1 0 0 1 560 126)"><tspan class="ps07 ps22" xml:space="preserve">06 33 65 98 54</tspan></text>
</g>
</g>
</g>
</g>
<g class="ps01">
<clipPath id="clp9" clip-rule="evenodd">
<path d="M293.02 82.676 L307.08 82.676 L307.08 96.736 L293.02 96.736 Z" />
</clipPath>
<g clip-path="url(#clp9)">
<g class="ps01">
<g transform="matrix(0.740 0 0 0.740 293.391 83.045)">
<path d="M18 9 C18 10.193 17.772 11.342 17.315 12.444 C16.858 13.547 16.208 14.52 15.364 15.364 C14.52 16.208 13.547 16.858 12.444 17.315 C11.342 17.772 10.193 18 9 18 C7.806 18 6.658 17.772 5.555 17.315 C4.453 16.858 3.48 16.208 2.636 15.364 C1.792 14.52 1.141 13.547 0.685 12.444 C0.228 11.342 0 10.193 0 9 C0 7.806 0.228 6.658 0.685 5.555 C1.141 4.453 1.792 3.48 2.636 2.636 C3.48 1.792 4.453 1.141 5.555 0.685 C6.658 0.228 7.806 0 9 0 C10.193 0 11.342 0.228 12.444 0.685 C13.547 1.141 14.52 1.792 15.364 2.636 C16.208 3.48 16.858 4.453 17.315 5.555 C17.772 6.658 18 7.806 18 9 Z" class="ps03" />
<path d="M4.042 6.408 L4.042 11.95 L6.812 9.18 L4.042 6.408 ZM9.073 10.469 L13.544 6 L4.453 6 L8.923 10.469 C8.965 10.51 9.032 10.51 9.073 10.469 ZM9.201 11.164 C9.147 11.219 9.075 11.248 8.998 11.248 C8.922 11.248 8.851 11.219 8.797 11.164 L7.223 9.59 L4.47 12.344 L13.53 12.344 L10.776 9.588 L9.201 11.164 ZM13.958 6.407 L13.958 11.949 L11.186 9.178 L13.958 6.407 Z" class="ps02" />
</g>
</g>
</g>
</g>
<g class="ps01">
<clipPath id="clp10" clip-rule="evenodd">
<path d="M0 0 L446 0 L446 612.48 L0 612.48 Z" />
</clipPath>
<g clip-path="url(#clp10)">
<g class="ps01">
<g transform="matrix(0.562 0 0 0.562 0 0)">
<text transform="matrix(1 0 0 1 560 165)"><tspan class="ps07 ps22" xml:space="preserve">m.durand@mail.fr</tspan></text>
<text transform="matrix(1 0 0 1 521 215)"><tspan class="ps07 ps21" xml:space="preserve">COMPÉTENCES</tspan></text>
<text transform="matrix(1 0 0 1 531.656 251)"><tspan class="ps07 ps22" xml:space="preserve">Prise en charge du courrier</tspan></text>
<text transform="matrix(1 0 0 1 531.656 272)"><tspan class="ps07 ps22" xml:space="preserve">Rédaction d'un compte-rendu</tspan></text>
<text transform="matrix(1 0 0 1 531.656 293)"><tspan class="ps07 ps22" xml:space="preserve">Classement des dossiers</tspan></text>
<text transform="matrix(1 0 0 1 531.656 314)"><tspan x="0,9.924" class="ps07 ps22" xml:space="preserve">Gestion d'agendas complexes</tspan></text>
<text transform="matrix(1 0 0 1 521 363)"><tspan class="ps07 ps21" xml:space="preserve">FORMATION</tspan></text>
<text transform="matrix(1 0 0 1 521 398)"><tspan class="ps07 ps23" xml:space="preserve">Baccalauréat professionnel,</tspan></text><text transform="matrix(1 0 0 1 521 419)"><tspan class="ps07 ps23" xml:space="preserve">Secrétariat, </tspan></text><text transform="matrix(1 0 0 1 603.968 419)"><tspan class="ps07 ps24" xml:space="preserve">09/2015 - 07/2018</tspan></text><text transform="matrix(1 0 0 1 521 440)"><tspan class="ps07 ps24" xml:space="preserve">Lycée Jules Ferry</tspan></text>
<text transform="matrix(1 0 0 1 637.718 440)"><tspan xml:space="preserve" class="ps07 ps22"> - </tspan></text><text transform="matrix(1 0 0 1 649.906 440)"><tspan class="ps07 ps25" xml:space="preserve">Paris</tspan></text>
<text transform="matrix(1 0 0 1 521 489)"><tspan class="ps07 ps21" xml:space="preserve">LANGUES</tspan></text>
<text transform="matrix(1 0 0 1 521 525)"><tspan class="ps07 ps23" xml:space="preserve">Français</tspan></text>
<text transform="matrix(1 0 0 1 521 555)"><tspan class="ps07 ps22" xml:space="preserve">Langue maternelle</tspan></text>
<text transform="matrix(1 0 0 1 521 580)"><tspan class="ps07 ps23" xml:space="preserve">Anglais</tspan></text>
<text transform="matrix(1 0 0 1 521 610)"><tspan class="ps07 ps22" xml:space="preserve">Bilingue</tspan></text>
<text transform="matrix(1 0 0 1 521 635)"><tspan class="ps07 ps23" xml:space="preserve">Allemand</tspan></text>
<text transform="matrix(1 0 0 1 521 666)"><tspan class="ps07 ps22" xml:space="preserve">Élémentaire (A2)</tspan></text>
<text transform="matrix(1 0 0 1 46 81)"><tspan class="ps08 ps26" xml:space="preserve">MARION</tspan></text>
<text transform="matrix(1 0 0 1 46 129)"><tspan class="ps08 ps26" xml:space="preserve">DURAND</tspan></text>
<text transform="matrix(1 0 0 1 57.312 545)"><tspan class="ps09 ps22" xml:space="preserve">Prise de notes des échanges et des décisions prises lors</tspan></text>
<text transform="matrix(1 0 0 1 57.312 566)"><tspan class="ps09 ps22" xml:space="preserve">des réunions et rédaction d'un compte rendu, diffusion de</tspan></text>
<text transform="matrix(1 0 0 1 57.312 587)"><tspan class="ps09 ps22" xml:space="preserve">document au personnel concerné et archivage dans la</tspan></text>
<text transform="matrix(1 0 0 1 57.312 608)"><tspan class="ps09 ps22" xml:space="preserve">banque de données.</tspan></text>
<text transform="matrix(1 0 0 1 46 545)"><tspan class="ps09 ps22">•</tspan></text>
<text transform="matrix(1 0 0 1 57.312 633)"><tspan class="ps09 ps22" xml:space="preserve">Organisation de l'agenda du responsable en optimisant</tspan></text>
<text transform="matrix(1 0 0 1 57.312 654)"><tspan class="ps09 ps22" xml:space="preserve">ses prises de rendez-vous et l'organisation de ses visites,</tspan></text>
<text transform="matrix(1 0 0 1 57.312 675)"><tspan class="ps09 ps22" xml:space="preserve">en tenant compte de son planning de travail et de ses</tspan></text>
<text transform="matrix(1 0 0 1 57.312 696)"><tspan class="ps09 ps22" xml:space="preserve">priorités.</tspan></text>
<text transform="matrix(1 0 0 1 46 633)"><tspan class="ps09 ps22">•</tspan></text>
<text transform="matrix(1 0 0 1 57.312 721)"><tspan class="ps09 ps22" xml:space="preserve">Rédaction et mise en forme de courriers, de documents, de</tspan></text>
<text transform="matrix(1 0 0 1 57.312 742)"><tspan class="ps09 ps22" xml:space="preserve">supports de communication, de notes, de mails, en</tspan></text>
<text transform="matrix(1 0 0 1 57.312 763)"><tspan class="ps09 ps22" xml:space="preserve">appliquant les normes rédactionnelles et en assurant une</tspan></text>
<text transform="matrix(1 0 0 1 57.312 784)"><tspan class="ps09 ps22" xml:space="preserve">orthographe correcte.</tspan></text>
<text transform="matrix(1 0 0 1 46 721)"><tspan class="ps09 ps22">•</tspan></text>
<text transform="matrix(1 0 0 1 57.312 872)"><tspan class="ps09 ps22" xml:space="preserve">Gestion du standard téléphonique comprenant le filtrage</tspan></text>
<text transform="matrix(1 0 0 1 57.312 893)"><tspan class="ps09 ps22" xml:space="preserve">des appels, le renseignement des interlocuteurs,</tspan></text>
<text transform="matrix(1 0 0 1 57.312 914)"><tspan class="ps09 ps22" xml:space="preserve">l'orientation vers le bon correspondant, la prise des</tspan></text>
<text transform="matrix(1 0 0 1 57.312 935)"><tspan class="ps09 ps22" xml:space="preserve">rendez-vous et le traitement de la messagerie.</tspan></text>
<text transform="matrix(1 0 0 1 46 872)"><tspan class="ps09 ps22">•</tspan></text>
<text transform="matrix(1 0 0 1 57.312 960)"><tspan class="ps09 ps22" xml:space="preserve">Organisation des réunions de travail en réservant les</tspan></text>
<text transform="matrix(1 0 0 1 57.312 981)"><tspan class="ps09 ps22" xml:space="preserve">salles selon leur capacité d'accueil, en préparant</tspan></text>
<text transform="matrix(1 0 0 1 57.312 1002)"><tspan class="ps09 ps22" xml:space="preserve">l'ensemble des documents nécessaires, en vérifiant le bon</tspan></text>
<text transform="matrix(1 0 0 1 57.312 1023)"><tspan class="ps09 ps22" xml:space="preserve">fonctionnement du vidéoprojecteur.</tspan></text>
<text transform="matrix(1 0 0 1 46 960)"><tspan class="ps09 ps22">•</tspan></text>
</g>
</g>
</g>
</g>
<g class="ps01">
<clipPath id="clp11" clip-rule="evenodd">
<path d="M293.02 300.33 L420.13 300.33 L420.13 303.15 L293.02 303.15 Z" />
</clipPath>
<g clip-path="url(#clp11)">
<g class="ps01">
<g transform="matrix(0.562 0 0 0.562 0 0)">
<path d="M521 534 L747 534 L747 539 L521 539 Z" class="ps03" />
</g>
</g>
</g>
</g>
<g class="ps01">
<clipPath id="clp12" clip-rule="evenodd">
<path d="M293.02 331.27 L420.13 331.27 L420.13 334.08 L293.02 334.08 Z" />
</clipPath>
<g clip-path="url(#clp12)">
<g class="ps01">
<g transform="matrix(0.562 0 0 0.562 0 0)">
<path d="M521 589 L747 589 L747 594 L521 594 Z" class="ps03" />
</g>
</g>
</g>
</g>
<g class="ps01">
<clipPath id="clp13" clip-rule="evenodd">
<path d="M293.02 362.2 L420.13 362.2 L420.13 365.57 L293.02 365.57 Z" />
</clipPath>
<g clip-path="url(#clp13)">
<g class="ps01">
<g transform="matrix(0.562 0 0 0.562 0 0)">
<path d="M521 644 L747 644 L747 650 L521 650 Z" class="ps010" />
<path d="M521 644 L596 644 L596 650 L521 650 Z" class="ps03" />
</g>
</g>
</g>
</g>
</g>
</g>
</g>
</g>
</g>
</g>
</svg>